<svg width="136" height="44" viewBox="0 0 136 44" fill="none" xmlns="http://www.w3.org/2000/svg">
<g clip-path="url(#clip0)">
<path d="M130.901 0H4.76685C2.3368 0 0.366852 1.96995 0.366852 4.4V39.6C0.366852 42.0301 2.3368 44 4.76685 44H130.901C133.331 44 135.301 42.0301 135.301 39.6V4.4C135.301 1.96995 133.331 0 130.901 0Z" fill="black"/>
<path fill-rule="evenodd" clip-rule="evenodd" d="M28.4681 8.78577H17.531C12.3795 8.78577 10.4973 10.6852 10.4973 15.8836V26.92C10.4973 32.1184 12.3795 34.0177 17.531 34.0177H28.4681C33.6196 34.0177 35.5086 32.1184 35.5086 26.92V15.8836C35.502 10.6852 33.6196 8.78577 28.4681 8.78577Z" fill="#CE0E2D"/>
<path d="M15.4451 21.4062H16.1055V24.7051H15.4451V23.3656H13.9458V24.7051H13.2854V21.4062H13.9458V22.7391H15.4451V21.4062ZM19.1832 23.2923C19.1832 23.8255 18.919 24.112 18.4369 24.112C17.9547 24.112 17.6906 23.8188 17.6906 23.2656V21.3995H17.0302V23.2856C17.0302 24.212 17.5387 24.7452 18.4303 24.7452C19.3285 24.7452 19.8437 24.2053 19.8437 23.259V21.3995H19.1832V23.2923ZM26.851 23.6721L26.1114 21.4062H25.5698L24.8301 23.6721L24.1101 21.4062H23.4035L24.5461 24.7051H25.0943L25.8405 22.5391L26.5869 24.7051H27.1416L28.2776 21.4062H27.5907L26.851 23.6721ZM29.4533 23.2856H30.6618V22.6858H29.4533V22.0127H31.2034V21.4128H28.7994V24.7051H31.2695V24.1053H29.4533V23.2856ZM32.0554 24.6984H32.7093V21.4062H32.0554V24.6984ZM21.1579 24.012L20.8607 24.6984H20.1805L21.6203 21.3995H22.2081L23.6413 24.6984H22.9478L22.6571 24.012H21.1579ZM21.4024 23.4189H22.4062L21.9043 22.2393L21.4024 23.4189Z" fill="white"/>
<path d="M22.9999 17.2005C20.7016 17.2005 18.8391 15.3145 18.8391 13.0018H19.4269C19.4269 14.9879 21.0318 16.6074 22.9999 16.6074C24.9681 16.6074 26.573 14.9879 26.573 13.0018H27.1608C27.1608 15.3211 25.2917 17.2005 22.9999 17.2005Z" fill="white"/>
<path d="M45.384 16.4722C45.0021 16.4722 44.644 16.408 44.31 16.2796C43.9758 16.1457 43.6867 15.9531 43.4427 15.7015C43.1988 15.45 43.0052 15.1395 42.8619 14.7702C42.724 14.4009 42.655 13.9754 42.655 13.4937C42.655 13.012 42.724 12.5892 42.8619 12.2252C43.0052 11.8559 43.1988 11.5508 43.4427 11.31C43.6867 11.0638 43.9758 10.8791 44.31 10.756C44.644 10.6276 45.0021 10.5634 45.384 10.5634C45.7712 10.5634 46.1319 10.6276 46.466 10.756C46.8002 10.8791 47.0892 11.0638 47.3332 11.31C47.5772 11.5562 47.7682 11.864 47.9061 12.2332C48.0439 12.5972 48.1129 13.0201 48.1129 13.5018C48.1129 13.9781 48.0439 14.4009 47.9061 14.7702C47.7682 15.1395 47.5772 15.45 47.3332 15.7015C47.0892 15.9531 46.8002 16.1457 46.466 16.2796C46.1319 16.408 45.7712 16.4722 45.384 16.4722ZM45.384 15.7899C45.6598 15.7899 45.9144 15.7497 46.1477 15.6694C46.3812 15.5837 46.5827 15.4526 46.7524 15.2759C46.9274 15.094 47.0627 14.8585 47.1582 14.5695C47.259 14.2804 47.3094 13.9299 47.3094 13.5178C47.3094 13.1056 47.259 12.7551 47.1582 12.4661C47.0627 12.177 46.9274 11.9443 46.7524 11.7676C46.5827 11.5857 46.3812 11.4545 46.1477 11.3742C45.9144 11.2886 45.6598 11.2458 45.384 11.2458C45.1081 11.2458 44.8536 11.2886 44.6202 11.3742C44.3869 11.4545 44.1826 11.5857 44.0076 11.7676C43.8379 11.9443 43.7027 12.177 43.6018 12.4661C43.5063 12.7551 43.4587 13.1056 43.4587 13.5178C43.4587 13.9299 43.5063 14.2804 43.6018 14.5695C43.7027 14.8585 43.8379 15.094 44.0076 15.2759C44.1826 15.4526 44.3869 15.5837 44.6202 15.6694C44.8536 15.7497 45.1081 15.7899 45.384 15.7899Z" fill="white"/>
<path d="M50.679 12.8274V16.3919H49.9788V12.8274H48.682V12.2252H51.9996V12.8274H50.679Z" fill="white"/>
<path d="M53.8738 14.6177H53.5079V16.3919H52.8077V12.2252H53.5079V14.0156H53.9056L55.3537 12.2252H56.1493L54.4546 14.2805L56.1811 16.3919H55.3298L53.8738 14.6177Z" fill="white"/>
<path d="M58.9943 16.4722C58.6761 16.4722 58.4003 16.3973 58.1669 16.2475C57.9389 16.0975 57.7558 15.8915 57.6179 15.6293V17.813H56.9179V12.2252H57.5304L57.6021 13.0361C57.7399 12.7631 57.9256 12.5464 58.159 12.3858C58.3923 12.2252 58.6814 12.1449 59.0261 12.1449C59.2648 12.1449 59.493 12.1904 59.7104 12.2814C59.9332 12.3671 60.1268 12.5009 60.2911 12.6828C60.4608 12.8595 60.5935 13.0843 60.689 13.3572C60.7897 13.6248 60.8401 13.9406 60.8401 14.3045C60.8401 14.6739 60.7897 14.995 60.689 15.268C60.5882 15.5355 60.4529 15.7604 60.2832 15.9423C60.1135 16.119 59.9172 16.2527 59.6945 16.3437C59.4717 16.4294 59.2383 16.4722 58.9943 16.4722ZM58.8909 15.8379C59.2569 15.8379 59.5513 15.7122 59.774 15.4606C60.0021 15.2038 60.1161 14.8183 60.1161 14.3045C60.1161 13.8015 60.0021 13.4214 59.774 13.1645C59.5513 12.9022 59.2569 12.7711 58.8909 12.7711C58.7105 12.7711 58.5408 12.8032 58.3817 12.8675C58.228 12.9317 58.0927 13.0281 57.9759 13.1565C57.8646 13.2797 57.7744 13.4375 57.7055 13.6302C57.6418 13.8228 57.61 14.0477 57.61 14.3045C57.61 14.5615 57.6418 14.7862 57.7055 14.9789C57.7744 15.1717 57.8646 15.3321 57.9759 15.4606C58.0927 15.5891 58.228 15.6855 58.3817 15.7497C58.5408 15.8086 58.7105 15.8379 58.8909 15.8379Z" fill="white"/>
<path d="M63.383 16.4722C63.1018 16.4722 62.8393 16.424 62.5953 16.3278C62.3513 16.2314 62.1391 16.0922 61.9588 15.9102C61.7838 15.7229 61.6459 15.4954 61.5451 15.2279C61.4443 14.9602 61.394 14.6525 61.394 14.3045C61.394 13.962 61.4443 13.657 61.5451 13.3893C61.6459 13.1164 61.7838 12.8889 61.9588 12.7069C62.1391 12.5249 62.3513 12.3858 62.5953 12.2894C62.8393 12.1931 63.1018 12.1449 63.383 12.1449C63.6693 12.1449 63.9345 12.1931 64.1785 12.2894C64.4225 12.3858 64.632 12.5249 64.807 12.7069C64.9874 12.8889 65.1279 13.1164 65.2288 13.3893C65.3348 13.657 65.3878 13.962 65.3878 14.3045C65.3878 14.6525 65.3348 14.9602 65.2288 15.2279C65.1279 15.4954 64.9874 15.7229 64.807 15.9102C64.632 16.0922 64.4225 16.2314 64.1785 16.3278C63.9345 16.424 63.6693 16.4722 63.383 16.4722ZM63.383 15.8379C63.5686 15.8379 63.7383 15.8086 63.8922 15.7497C64.0512 15.6855 64.1892 15.5917 64.3059 15.4687C64.4225 15.3402 64.5127 15.1797 64.5764 14.987C64.64 14.7942 64.6719 14.5668 64.6719 14.3045C64.6719 14.0423 64.64 13.8148 64.5764 13.6222C64.5127 13.4295 64.4225 13.2716 64.3059 13.1484C64.1892 13.0201 64.0512 12.9263 63.8922 12.8675C63.7383 12.8032 63.5686 12.7711 63.383 12.7711C63.1973 12.7711 63.0276 12.8032 62.8738 12.8675C62.7199 12.9263 62.5847 13.0201 62.468 13.1484C62.3566 13.2716 62.2691 13.4295 62.2054 13.6222C62.1419 13.8148 62.11 14.0423 62.11 14.3045C62.11 14.5668 62.1419 14.7942 62.2054 14.987C62.2691 15.1797 62.3566 15.3402 62.468 15.4687C62.5847 15.5917 62.7199 15.6855 62.8738 15.7497C63.0276 15.8086 63.1973 15.8379 63.383 15.8379Z" fill="white"/>
<path d="M68.0632 11.6712C67.8511 11.6712 67.6654 11.6445 67.5063 11.5909C67.3524 11.5321 67.2225 11.4545 67.1164 11.3582C67.0156 11.2564 66.9387 11.1414 66.8857 11.0129C66.838 10.8791 66.8141 10.7346 66.8141 10.5794H67.5143C67.5143 10.7828 67.562 10.93 67.6575 11.0209C67.7582 11.112 67.8934 11.1574 68.0632 11.1574C68.2329 11.1574 68.3655 11.112 68.461 11.0209C68.5565 10.93 68.6042 10.7828 68.6042 10.5794H69.3044C69.3044 10.8845 69.2009 11.1441 68.9941 11.3582C68.7925 11.5669 68.4823 11.6712 68.0632 11.6712ZM66.9414 15.4285L69.1452 12.2252H69.8533V16.3919H69.1531V13.1966L66.9573 16.3919H66.2412V12.2252H66.9414V15.4285Z" fill="white"/>
<path d="M72.6591 12.8274V16.3919H71.9589V12.8274H70.6621V12.2252H73.9797V12.8274H72.6591Z" fill="white"/>
<path d="M77.9571 16.0387C77.8987 16.0815 77.8271 16.127 77.7423 16.1752C77.6574 16.2234 77.554 16.2715 77.432 16.3197C77.31 16.3625 77.172 16.3973 77.0183 16.424C76.8645 16.4561 76.6921 16.4722 76.5011 16.4722C75.8063 16.4722 75.2786 16.2822 74.9179 15.9022C74.5572 15.5222 74.3768 14.9896 74.3768 14.3045C74.3768 13.9674 74.4246 13.665 74.52 13.3974C74.6208 13.1297 74.7587 12.905 74.9338 12.7229C75.1089 12.5356 75.3157 12.3938 75.5544 12.2975C75.7931 12.1958 76.0529 12.1449 76.3341 12.1449C76.6311 12.1449 76.8963 12.1958 77.1297 12.2975C77.363 12.3992 77.554 12.549 77.7025 12.747C77.8563 12.945 77.9597 13.1913 78.0128 13.4857C78.0711 13.7747 78.0711 14.1119 78.0128 14.4972H75.1008C75.1274 14.9468 75.26 15.284 75.4987 15.5088C75.7373 15.7283 76.0927 15.8379 76.5647 15.8379C76.8831 15.8379 77.1562 15.7925 77.3842 15.7015C77.6124 15.6106 77.8032 15.5114 77.9571 15.4044V16.0387ZM76.3181 12.7711C76.0158 12.7711 75.7559 12.8648 75.5384 13.0522C75.321 13.2395 75.1831 13.5231 75.1247 13.9031H77.3445C77.3656 13.5178 77.2782 13.2341 77.0819 13.0522C76.8857 12.8648 76.6311 12.7711 76.3181 12.7711Z" fill="white"/>
<path d="M80.7004 12.2252H82.2439C82.7424 12.2252 83.1191 12.3135 83.3736 12.4902C83.6283 12.6615 83.7555 12.9317 83.7555 13.301C83.7555 13.5472 83.6918 13.7453 83.5646 13.8951C83.4426 14.0397 83.2676 14.1441 83.0394 14.2082C83.6283 14.3045 83.9226 14.6338 83.9226 15.1958C83.9226 15.4098 83.8802 15.5945 83.7954 15.7497C83.7104 15.8995 83.5937 16.0226 83.4452 16.119C83.2967 16.2154 83.1164 16.2849 82.9043 16.3278C82.6973 16.3706 82.472 16.3919 82.228 16.3919H80.7004V12.2252ZM81.4006 12.8274V13.9594H82.1802C82.4454 13.9594 82.6576 13.9112 82.8167 13.8148C82.9811 13.7185 83.0633 13.5793 83.0633 13.3974C83.0633 13.1779 82.9918 13.0281 82.8486 12.9478C82.7054 12.8675 82.5011 12.8274 82.2359 12.8274H81.4006ZM81.4006 14.5214V15.7899H82.2201C82.3686 15.7899 82.5011 15.7819 82.6178 15.7658C82.7398 15.7443 82.8432 15.7096 82.9281 15.6614C83.0183 15.6132 83.0872 15.549 83.1349 15.4687C83.1827 15.3884 83.2065 15.2894 83.2065 15.1717C83.2065 14.9308 83.1244 14.7621 82.9599 14.6659C82.7955 14.5695 82.5488 14.5214 82.2201 14.5214H81.4006Z" fill="white"/>
<path d="M46.6014 19.1781H49.1314L53.173 30.6907H51.184L50.1338 27.6721H45.3284L44.2782 30.6907H42.5756L46.6014 19.1781ZM49.5451 26.0022L47.7311 20.8159L45.9171 26.0022H49.5451Z" fill="white"/>
<path d="M59.0165 30.8513C58.3907 30.8513 57.8497 30.7121 57.3936 30.4338C56.948 30.1449 56.5873 29.7594 56.3115 29.2777V33.5328H54.4657V22.3573H56.1525L56.2797 23.8345C56.5555 23.3315 56.9215 22.9354 57.3776 22.6463C57.8338 22.3466 58.3907 22.1967 59.0484 22.1967C59.5364 22.1967 59.9978 22.2877 60.4328 22.4697C60.8783 22.641 61.2655 22.9086 61.5944 23.2725C61.9232 23.6258 62.1831 24.0754 62.3741 24.6213C62.5756 25.1565 62.6763 25.7881 62.6763 26.516C62.6763 27.2546 62.5756 27.8969 62.3741 28.4428C62.1831 28.978 61.9179 29.4277 61.5784 29.7916C61.2495 30.1449 60.8623 30.4124 60.4168 30.5944C59.9713 30.7657 59.5046 30.8513 59.0165 30.8513ZM58.571 29.2938C59.2287 29.2938 59.7591 29.0691 60.1623 28.6194C60.576 28.1592 60.7828 27.458 60.7828 26.516C60.7828 25.5847 60.576 24.889 60.1623 24.4286C59.7591 23.9684 59.234 23.7381 58.587 23.7381C58.2581 23.7381 57.9558 23.7971 57.6799 23.9148C57.4042 24.0218 57.1602 24.1931 56.948 24.4286C56.7465 24.6641 56.5873 24.9585 56.4707 25.3118C56.354 25.6543 56.2956 26.0557 56.2956 26.516C56.2956 26.987 56.354 27.3992 56.4707 27.7524C56.5873 28.0949 56.7465 28.3839 56.948 28.6194C57.1496 28.8442 57.3882 29.0155 57.6641 29.1332C57.9505 29.2403 58.2528 29.2938 58.571 29.2938Z" fill="white"/>
<path d="M68.7907 30.8513C68.1648 30.8513 67.6238 30.7121 67.1676 30.4338C66.7222 30.1449 66.3615 29.7594 66.0857 29.2777V33.5328H64.2399V22.3573H65.9265L66.0538 23.8345C66.3297 23.3315 66.6956 22.9354 67.1517 22.6463C67.6079 22.3466 68.1648 22.1967 68.8225 22.1967C69.3104 22.1967 69.7719 22.2877 70.2068 22.4697C70.6524 22.641 71.0395 22.9086 71.3684 23.2725C71.6973 23.6258 71.9572 24.0754 72.1481 24.6213C72.3496 25.1565 72.4505 25.7881 72.4505 26.516C72.4505 27.2546 72.3496 27.8969 72.1481 28.4428C71.9572 28.978 71.6919 29.4277 71.3525 29.7916C71.0237 30.1449 70.6365 30.4124 70.191 30.5944C69.7454 30.7657 69.2787 30.8513 68.7907 30.8513ZM68.3452 29.2938C69.0029 29.2938 69.5333 29.0691 69.9363 28.6194C70.3501 28.1592 70.557 27.458 70.557 26.516C70.557 25.5847 70.3501 24.889 69.9363 24.4286C69.5333 23.9684 69.0082 23.7381 68.361 23.7381C68.0322 23.7381 67.7299 23.7971 67.4541 23.9148C67.1783 24.0218 66.9342 24.1931 66.7222 24.4286C66.5205 24.6641 66.3615 24.9585 66.2448 25.3118C66.128 25.6543 66.0697 26.0557 66.0697 26.516C66.0697 26.987 66.128 27.3992 66.2448 27.7524C66.3615 28.0949 66.5205 28.3839 66.7222 28.6194C66.9237 28.8442 67.1624 29.0155 67.4381 29.1332C67.7246 29.2403 68.0269 29.2938 68.3452 29.2938Z" fill="white"/>
<path d="M84.1021 26.1307C84.1021 26.8051 84.0014 27.4313 83.7999 28.0092C83.5983 28.5766 83.2907 29.0744 82.877 29.5026C82.4632 29.9201 81.9434 30.2519 81.3176 30.4981C80.7023 30.7336 79.9757 30.8513 79.1376 30.8513C78.3102 30.8513 77.557 30.7122 76.8781 30.4339C76.1992 30.1556 75.6157 29.7595 75.1278 29.2456C74.6398 28.7318 74.2632 28.111 73.998 27.3831C73.7329 26.6551 73.6002 25.8417 73.6002 24.9424C73.6002 24.0433 73.7275 23.2297 73.9821 22.5019C74.2473 21.7739 74.6291 21.153 75.1278 20.6392C75.637 20.1254 76.2629 19.7294 77.0054 19.451C77.7585 19.1727 78.6231 19.0336 79.5991 19.0336C80.087 19.0336 80.5167 19.0657 80.8879 19.1299C81.2699 19.1835 81.6093 19.2584 81.9063 19.3548C82.2033 19.4403 82.4632 19.5421 82.686 19.6598C82.9087 19.7776 83.1104 19.8899 83.2907 19.997V21.7311C82.8027 21.4421 82.267 21.2012 81.6836 21.0086C81.1107 20.8052 80.4265 20.7035 79.6309 20.7035C78.2412 20.7035 77.2281 21.0781 76.5917 21.8275C75.9552 22.5661 75.637 23.6044 75.637 24.9424C75.637 26.2913 75.9393 27.3349 76.5439 28.0735C77.1593 28.8121 78.029 29.1814 79.1536 29.1814C79.6839 29.1814 80.14 29.1119 80.522 28.9727C80.9039 28.8228 81.2114 28.6248 81.4449 28.3786C81.6888 28.1217 81.8639 27.8219 81.97 27.4794C82.0866 27.1262 82.145 26.7408 82.145 26.3234V26.227H78.8034V24.5571H84.1021V26.1307Z" fill="white"/>
<path d="M90.5814 29.2296C90.4966 29.4223 90.3798 29.6149 90.2313 29.8076C90.0934 30.0003 89.9184 30.1769 89.7062 30.3375C89.5047 30.4874 89.2607 30.6105 88.9743 30.7068C88.6878 30.8031 88.3536 30.8513 87.9718 30.8513C87.6111 30.8513 87.277 30.7978 86.9693 30.6907C86.6617 30.5944 86.3912 30.4445 86.1578 30.2411C85.9351 30.0377 85.7547 29.7863 85.6168 29.4865C85.4896 29.1761 85.4259 28.8228 85.4259 28.4268C85.4259 27.5169 85.7601 26.8372 86.4283 26.3876C87.0967 25.9273 88.0408 25.6971 89.2607 25.6971H90.5177V25.1833C90.5177 24.6374 90.3798 24.2627 90.104 24.0593C89.8282 23.8453 89.372 23.7381 88.7356 23.7381C88.1946 23.7381 87.6854 23.8184 87.208 23.979C86.7413 24.1289 86.3276 24.3055 85.9669 24.5089V22.9514C86.2958 22.7695 86.7307 22.5982 87.2717 22.4376C87.8127 22.277 88.4014 22.1967 89.038 22.1967C90.0987 22.1967 90.9155 22.4216 91.4883 22.8711C92.0718 23.31 92.3635 24.0166 92.3635 24.9906V29.342V29.6791C92.3741 29.7969 92.3794 29.92 92.3794 30.0485C92.3901 30.1769 92.4006 30.3001 92.4112 30.4178C92.4219 30.5248 92.4324 30.6158 92.4431 30.6907H90.7405C90.7086 30.5409 90.6768 30.3321 90.6451 30.0646C90.6238 29.7969 90.6079 29.556 90.5973 29.342L90.5814 29.2296ZM88.481 29.4062C88.8735 29.4062 89.197 29.3259 89.4517 29.1653C89.7168 28.9941 89.929 28.8014 90.0881 28.5873C90.2472 28.3625 90.3586 28.1431 90.4223 27.929C90.4859 27.7149 90.5177 27.565 90.5177 27.4794V26.9175H89.372C88.6401 26.9175 88.1044 27.0352 87.7649 27.2707C87.4255 27.4954 87.2557 27.8166 87.2557 28.2341C87.2557 28.5981 87.3565 28.887 87.5581 29.1011C87.7702 29.3045 88.0779 29.4062 88.481 29.4062Z" fill="white"/>
<path d="M96.2005 19.1781V30.6907H94.3547V19.1781H96.2005Z" fill="white"/>
<path d="M100.116 19.1781V30.6907H98.2705V19.1781H100.116Z" fill="white"/>
<path d="M109.092 30.0806C108.975 30.1555 108.832 30.2411 108.663 30.3375C108.493 30.4232 108.291 30.5035 108.058 30.5784C107.825 30.6533 107.554 30.7175 107.246 30.771C106.939 30.8246 106.589 30.8513 106.196 30.8513C104.679 30.8513 103.544 30.4714 102.791 29.7113C102.048 28.9513 101.677 27.8861 101.677 26.516C101.677 25.8417 101.778 25.2368 101.979 24.7016C102.181 24.1664 102.462 23.7168 102.823 23.3528C103.184 22.9782 103.613 22.6945 104.112 22.5019C104.61 22.2985 105.157 22.1967 105.751 22.1967C106.366 22.1967 106.918 22.2985 107.406 22.5019C107.904 22.7052 108.312 23.0103 108.631 23.4171C108.949 23.8238 109.166 24.327 109.283 24.9264C109.41 25.5259 109.416 26.227 109.299 27.0298H103.587C103.661 27.7899 103.91 28.3625 104.334 28.7479C104.759 29.1225 105.422 29.3099 106.323 29.3099C106.981 29.3099 107.528 29.2296 107.962 29.0691C108.408 28.8977 108.785 28.7211 109.092 28.5391V30.0806ZM105.751 23.674C105.21 23.674 104.754 23.8399 104.382 24.1718C104.011 24.5035 103.767 24.996 103.65 25.649H107.533C107.554 24.9745 107.406 24.4768 107.087 24.1557C106.769 23.8345 106.323 23.674 105.751 23.674Z" fill="white"/>
<path d="M115.533 24.1557C114.929 24.1449 114.382 24.2413 113.894 24.4447C113.407 24.6481 113.035 24.9692 112.781 25.4081V30.6907H110.935V22.3573H112.621L112.749 24.0915H112.781C113.046 23.5777 113.407 23.1494 113.863 22.8069C114.33 22.4643 114.886 22.261 115.533 22.1967V24.1557Z" fill="white"/>
<path d="M121.683 30.5944C121.504 31.0975 121.307 31.5417 121.095 31.9271C120.893 32.3124 120.655 32.6336 120.378 32.8905C120.113 33.1581 119.801 33.3562 119.44 33.4846C119.09 33.6237 118.676 33.6933 118.199 33.6933C117.679 33.6933 117.234 33.6077 116.862 33.4364V31.7665C117.01 31.8843 117.196 31.9753 117.42 32.0395C117.642 32.1037 117.886 32.1359 118.151 32.1359C118.512 32.1359 118.809 32.0556 119.042 31.895C119.275 31.7451 119.488 31.515 119.679 31.2046L116.354 22.3573H118.342L120.649 28.8282L122.94 22.3573H124.659L121.683 30.5944Z" fill="white"/>
</g>
<defs>
<clipPath id="clip0">
<rect width="135.3" height="44" fill="white"/>
</clipPath>
</defs>
</svg>
