<svg width="137" height="44" viewBox="0 0 137 44" fill="none" xmlns="http://www.w3.org/2000/svg">
<g clip-path="url(#clip0)">
<path d="M8.711 44.04C8.359 44.04 8.015 44.035 7.666 44.027C6.94235 44.0175 6.22039 43.9547 5.506 43.839C4.8399 43.7248 4.1945 43.5121 3.591 43.208C2.9937 42.9063 2.44875 42.5106 1.977 42.036C1.49837 41.5674 1.09976 41.0235 0.796999 40.426C0.491514 39.8255 0.28005 39.1816 0.169999 38.517C0.0512937 37.8029 -0.0128917 37.0808 -0.0220015 36.357C-0.0290015 36.113 -0.0390015 35.304 -0.0390015 35.304V8.68398C-0.0390015 8.68398 -0.0290015 7.88698 -0.0220015 7.65298C-0.0130015 6.92998 0.0509985 6.20897 0.168999 5.49498C0.279371 4.82833 0.491158 4.18252 0.796999 3.57998C1.41267 2.37996 2.3901 1.40393 3.591 0.789975C4.19255 0.487484 4.83603 0.276813 5.5 0.164975C6.217 0.0479751 6.942 -0.0150249 7.668 -0.0250249L8.711 -0.0380249H127.472L128.527 -0.0240249C129.246 -0.0150249 129.964 0.0469751 130.674 0.163975C131.345 0.277367 131.996 0.490028 132.605 0.794975C133.804 1.41022 134.78 2.38555 135.396 3.58398C135.697 4.18198 135.906 4.82298 136.015 5.48398C136.135 6.20298 136.202 6.92998 136.215 7.65898C136.219 7.98497 136.219 8.33598 136.219 8.68398C136.228 9.11697 136.228 9.52798 136.228 9.94298V34.06C136.228 34.48 136.228 34.888 136.219 35.3C136.219 35.674 136.219 36.018 136.214 36.37C136.201 37.087 136.135 37.8 136.017 38.507C135.909 39.1766 135.699 39.8255 135.393 40.431C135.088 41.0217 134.692 41.5606 134.219 42.028C133.747 42.5049 133.201 42.9026 132.602 43.206C131.995 43.5127 131.345 43.7264 130.674 43.84C129.96 43.956 129.238 44.02 128.514 44.028C128.176 44.036 127.821 44.04 127.477 44.04L126.225 44.043L8.71 44.04H8.711Z" fill="black"/>
<path d="M27.838 21.872C27.8524 20.8711 28.1195 19.8901 28.6146 19.0201C29.1098 18.1502 29.8168 17.4195 30.67 16.896C30.1266 16.1219 29.4102 15.4852 28.5776 15.0364C27.7451 14.5877 26.8193 14.3393 25.874 14.311C23.856 14.1 21.9 15.515 20.871 15.515C19.823 15.515 18.24 14.332 16.535 14.367C15.4324 14.4023 14.3576 14.7219 13.415 15.295C12.4737 15.8674 11.6968 16.674 11.16 17.636C8.83598 21.648 10.57 27.546 12.796 30.789C13.909 32.377 15.211 34.152 16.915 34.089C18.581 34.019 19.204 33.029 21.216 33.029C23.209 33.029 23.794 34.089 25.531 34.049C27.321 34.019 28.447 32.453 29.521 30.85C30.3211 29.7187 30.9371 28.4679 31.346 27.144C30.3073 26.7061 29.4205 25.9723 28.796 25.034C28.1726 24.0972 27.8393 22.9973 27.838 21.872ZM24.556 12.178C25.5311 11.0118 26.012 9.51073 25.896 7.995C24.4068 8.15051 23.0307 8.86054 22.041 9.984C21.5581 10.5319 21.188 11.1698 20.9521 11.861C20.7161 12.5522 20.6189 13.2831 20.666 14.012C21.4107 14.0196 22.1476 13.8585 22.8212 13.5409C23.4949 13.2233 24.088 12.7574 24.556 12.178ZM47.836 30.227H42.366L41.053 34.095H38.736L43.916 19.785H46.324L51.505 34.095H49.15L47.837 30.227H47.836ZM42.933 28.442H47.269L45.131 22.165H45.071L42.933 28.442ZM62.695 28.88C62.695 32.121 60.955 34.204 58.329 34.204C57.6645 34.2384 57.0036 34.0856 56.4216 33.7629C55.8397 33.4403 55.3599 32.9608 55.037 32.379H54.987V37.547H52.839V23.662H54.919V25.397H54.958C55.2946 24.8171 55.7821 24.3394 56.3687 24.0147C56.9552 23.69 57.6189 23.5304 58.289 23.553C60.944 23.553 62.695 25.646 62.695 28.879V28.88ZM60.487 28.88C60.487 26.767 59.393 25.378 57.722 25.378C56.082 25.378 54.978 26.796 54.978 28.879C54.978 30.981 56.082 32.389 57.722 32.389C59.392 32.389 60.487 31.011 60.487 28.879V28.88ZM74.21 28.88C74.21 32.121 72.47 34.204 69.844 34.204C69.1795 34.2384 68.5186 34.0856 67.9366 33.7629C67.3547 33.4403 66.8749 32.9608 66.552 32.379H66.502V37.547H64.355V23.662H66.433V25.397H66.473C66.8096 24.8171 67.2971 24.3394 67.8837 24.0147C68.4702 23.69 69.1339 23.5304 69.804 23.553C72.46 23.553 74.21 25.646 74.21 28.879V28.88ZM72.003 28.88C72.003 26.767 70.908 25.378 69.238 25.378C67.597 25.378 66.493 26.796 66.493 28.879C66.493 30.981 67.597 32.389 69.238 32.389C70.908 32.389 72.003 31.011 72.003 28.879V28.88ZM81.82 30.108C81.98 31.528 83.362 32.458 85.251 32.458C87.061 32.458 88.364 31.528 88.364 30.248C88.364 29.137 87.578 28.472 85.719 28.016L83.859 27.569C81.224 26.935 80 25.706 80 23.711C80 21.242 82.158 19.546 85.22 19.546C88.254 19.546 90.333 21.242 90.403 23.711H88.235C88.105 22.283 86.921 21.421 85.191 21.421C83.461 21.421 82.278 22.293 82.278 23.563C82.278 24.575 83.034 25.17 84.883 25.626L86.464 26.013C89.409 26.707 90.631 27.886 90.631 29.98C90.631 32.657 88.493 34.334 85.092 34.334C81.91 34.334 79.761 32.696 79.622 30.108H81.82ZM95.268 21.193V23.662H97.258V25.358H95.268V31.11C95.268 32.003 95.666 32.42 96.541 32.42C96.777 32.415 97.013 32.399 97.247 32.37V34.056C96.854 34.1292 96.4546 34.1624 96.055 34.155C93.936 34.155 93.11 33.361 93.11 31.338V25.358H91.59V23.662H93.111V21.192H95.269L95.268 21.193ZM98.409 28.88C98.409 25.596 100.347 23.534 103.371 23.534C106.404 23.534 108.334 25.597 108.334 28.879C108.334 32.171 106.414 34.225 103.371 34.225C100.328 34.225 98.409 32.171 98.409 28.879V28.88ZM106.146 28.88C106.146 26.627 105.111 25.298 103.371 25.298C101.631 25.298 100.596 26.638 100.596 28.879C100.596 31.14 101.631 32.459 103.371 32.459C105.111 32.459 106.146 31.14 106.146 28.879V28.88ZM110.105 23.662H112.153V25.438H112.202C112.341 24.8824 112.667 24.3917 113.126 24.0484C113.584 23.705 114.147 23.5301 114.719 23.553C114.967 23.552 115.213 23.579 115.455 23.633V25.636C115.143 25.5406 114.817 25.4967 114.49 25.506C114.178 25.4935 113.867 25.5484 113.579 25.667C113.29 25.7855 113.03 25.965 112.817 26.193C112.605 26.4209 112.444 26.6921 112.346 26.988C112.249 27.2839 112.217 27.5974 112.252 27.907V34.095H110.104L110.105 23.662ZM125.357 31.03C125.068 32.925 123.218 34.225 120.852 34.225C117.808 34.225 115.919 32.191 115.919 28.929C115.919 25.656 117.818 23.534 120.761 23.534C123.656 23.534 125.476 25.517 125.476 28.68V29.414H118.087V29.544C118.053 29.9285 118.101 30.3159 118.229 30.6802C118.356 31.0446 118.56 31.3776 118.826 31.6572C119.092 31.9367 119.415 32.1562 119.773 32.3012C120.131 32.4462 120.515 32.5133 120.901 32.498C121.408 32.5462 121.917 32.4295 122.353 32.1652C122.788 31.9009 123.127 31.5031 123.318 31.031H125.357V31.03ZM118.097 27.917H123.328C123.357 27.3961 123.223 26.8792 122.944 26.4383C122.665 25.9973 122.256 25.6543 121.773 25.457C121.452 25.3254 121.108 25.2614 120.761 25.269C120.412 25.2671 120.065 25.3341 119.742 25.4663C119.418 25.5984 119.124 25.793 118.876 26.039C118.629 26.2851 118.432 26.5777 118.299 26.9001C118.165 27.2224 118.096 27.568 118.097 27.917ZM41.408 11.92H42.33C42.4884 11.9396 42.6492 11.9262 42.8022 11.8808C42.9553 11.8353 43.0973 11.7588 43.2193 11.6559C43.3414 11.553 43.4408 11.426 43.5115 11.2828C43.5822 11.1397 43.6225 10.9835 43.63 10.824C43.63 10.19 43.151 9.781 42.34 9.781C42.0953 9.74714 41.846 9.78757 41.6246 9.89705C41.4031 10.0065 41.2197 10.18 41.098 10.395C41.018 10.538 40.967 10.695 40.948 10.858H39.936C39.9533 10.5624 40.0316 10.2735 40.1658 10.0096C40.3 9.74558 40.4873 9.51219 40.716 9.324C40.9448 9.13522 41.2099 8.99547 41.4949 8.91342C41.78 8.83136 42.0788 8.80875 42.373 8.847C43.73 8.847 44.686 9.605 44.686 10.696C44.6892 11.062 44.5665 11.418 44.3383 11.7042C44.1102 11.9905 43.7905 12.1895 43.433 12.268V12.349C43.858 12.369 44.257 12.553 44.544 12.865C44.832 13.177 44.984 13.589 44.967 14.012C44.9199 14.4708 44.7357 14.9047 44.4383 15.2572C44.141 15.6097 43.7443 15.8644 43.3 15.988C43.0048 16.0707 42.6962 16.0938 42.392 16.056C41.9332 16.1179 41.4664 16.0399 41.0527 15.8322C40.6389 15.6246 40.2975 15.2969 40.073 14.892C39.925 14.6232 39.8329 14.3273 39.802 14.022H40.83C40.892 14.679 41.498 15.104 42.392 15.104C43.285 15.104 43.869 14.627 43.869 13.955C43.869 13.274 43.319 12.855 42.359 12.855H41.408V11.921V11.92ZM46.135 14.422C46.135 13.488 46.833 12.95 48.07 12.873L49.48 12.793V12.344C49.48 11.796 49.118 11.487 48.414 11.487C47.841 11.487 47.445 11.697 47.33 12.064H46.336C46.441 11.172 47.283 10.601 48.463 10.601C49.767 10.601 50.503 11.248 50.503 12.344V15.89H49.513V15.16H49.433C49.2678 15.4221 49.0359 15.6357 48.7612 15.7789C48.4864 15.9221 48.1785 15.9898 47.869 15.975C47.5403 16.0089 47.2092 15.9386 46.9226 15.774C46.636 15.6095 46.4084 15.359 46.272 15.058C46.182 14.858 46.136 14.641 46.135 14.422ZM49.48 13.979V13.545L48.209 13.626C47.492 13.674 47.167 13.917 47.167 14.374C47.167 14.841 47.574 15.114 48.132 15.114C48.3783 15.1386 48.6264 15.0883 48.8437 14.9697C49.061 14.851 49.2375 14.6696 49.35 14.449C49.4245 14.3027 49.4687 14.1428 49.48 13.979ZM53.23 11.563V15.89H52.202V10.7H55.628V11.563H53.23ZM61.852 13.293C61.852 14.942 61.016 15.975 59.702 15.975C59.38 15.9968 59.0584 15.9264 58.7749 15.7722C58.4914 15.6179 58.2576 15.3862 58.101 15.104H58.02V17.614H56.993V10.701H57.981V11.558H58.058C58.2169 11.2654 58.4536 11.0225 58.742 10.856C59.0304 10.6896 59.3591 10.6062 59.692 10.615C61.016 10.615 61.852 11.644 61.852 13.293ZM60.796 13.293C60.796 12.197 60.276 11.535 59.406 11.535C58.541 11.535 58.001 12.211 58.001 13.297C58.001 14.379 58.541 15.056 59.401 15.056C60.276 15.056 60.796 14.394 60.796 13.293ZM63.22 17.748V16.867C63.331 16.881 63.443 16.887 63.555 16.886C63.7733 16.9018 63.9899 16.8368 64.1634 16.7033C64.337 16.5698 64.4553 16.3771 64.496 16.162L64.573 15.909L62.69 10.7H63.808L65.112 14.821H65.194L66.494 10.7H67.583L65.643 16.103C65.198 17.366 64.706 17.771 63.645 17.771C63.56 17.771 63.315 17.761 63.22 17.747V17.748ZM68.383 14.417H69.405C69.505 14.875 69.935 15.113 70.537 15.113C71.221 15.113 71.641 14.813 71.641 14.346C71.641 13.846 71.264 13.606 70.537 13.606H69.758V12.811H70.524C71.144 12.811 71.46 12.573 71.46 12.14C71.46 11.758 71.155 11.468 70.524 11.468C69.949 11.468 69.529 11.711 69.463 12.12H68.473C68.549 11.6493 68.8059 11.227 69.1888 10.9431C69.5718 10.6591 70.0506 10.536 70.523 10.6C71.76 10.6 72.468 11.158 72.468 12.035C72.4739 12.2795 72.3954 12.5186 72.2457 12.7121C72.096 12.9055 71.8842 13.0414 71.646 13.097V13.178C71.9293 13.2144 72.1894 13.3534 72.3772 13.5686C72.5649 13.7838 72.6673 14.0604 72.665 14.346C72.665 15.332 71.823 15.985 70.537 15.985C69.401 15.985 68.477 15.465 68.383 14.417ZM74.144 15.89V10.7H75.161V14.27H75.243L77.641 10.7H78.659V15.89H77.64V12.302H77.563L75.161 15.89H74.143H74.144ZM84.266 11.563H82.628V15.89H81.6V11.563H79.96V10.7H84.266V11.562V11.563ZM89.799 14.489C89.6588 14.964 89.356 15.3746 88.9435 15.6489C88.5311 15.9231 88.0353 16.0435 87.543 15.989C87.027 16.0024 86.5207 15.8468 86.1013 15.5459C85.682 15.2449 85.3725 14.8151 85.22 14.322C85.1199 13.9952 85.0922 13.6505 85.139 13.312C85.0932 12.9719 85.1213 12.6259 85.2214 12.2977C85.3215 11.9695 85.4912 11.6667 85.719 11.41C85.9467 11.1525 86.227 10.947 86.541 10.8072C86.855 10.6675 87.1953 10.5968 87.539 10.6C88.986 10.6 89.861 11.587 89.861 13.216V13.574H86.186V13.631C86.161 13.9184 86.2277 14.2063 86.3764 14.4535C86.5252 14.7007 86.7484 14.8945 87.014 15.007C87.19 15.082 87.38 15.12 87.572 15.117C87.8171 15.1462 88.0655 15.1021 88.2856 14.9903C88.5057 14.8786 88.6879 14.7041 88.809 14.489H89.799ZM86.186 12.816H88.813C88.8262 12.6416 88.8027 12.4663 88.7439 12.3015C88.6851 12.1367 88.5924 11.9862 88.4717 11.8595C88.3511 11.7328 88.2052 11.6328 88.0435 11.5661C87.8818 11.4994 87.7079 11.4673 87.533 11.472C87.2657 11.4686 87.0036 11.5457 86.7807 11.6932C86.5578 11.8406 86.3844 12.0517 86.283 12.299C86.217 12.463 86.183 12.639 86.186 12.816ZM94.152 10.7H96.5C97.517 10.7 98.115 11.215 98.115 12.02C98.1167 12.276 98.0302 12.5248 97.8699 12.7245C97.7096 12.9241 97.4854 13.0624 97.235 13.116V13.197C97.5384 13.2164 97.8228 13.3513 98.0298 13.5739C98.2368 13.7966 98.3506 14.09 98.348 14.394C98.348 15.299 97.665 15.89 96.523 15.89H94.153V10.7H94.152ZM95.17 11.487V12.83H96.188C96.808 12.83 97.106 12.592 97.106 12.153C97.106 11.749 96.847 11.487 96.302 11.487H95.17ZM95.17 13.583V15.103H96.388C96.995 15.103 97.32 14.836 97.32 14.346C97.32 13.826 96.952 13.583 96.26 13.583H95.17Z" fill="white"/>
</g>
<defs>
<clipPath id="clip0">
<rect width="137" height="44" fill="white"/>
</clipPath>
</defs>
</svg>
