<svg width="149" height="44" viewBox="0 0 149 44" fill="none" xmlns="http://www.w3.org/2000/svg">
<path d="M143 0H5.5C4.04131 0 2.64236 0.579463 1.61091 1.61091C0.579463 2.64236 0 4.04131 0 5.5L0 38.5C0 39.9587 0.579463 41.3576 1.61091 42.3891C2.64236 43.4205 4.04131 44 5.5 44H143C144.459 44 145.858 43.4205 146.889 42.3891C147.921 41.3576 148.5 39.9587 148.5 38.5V5.5C148.5 4.04131 147.921 2.64236 146.889 1.61091C145.858 0.579463 144.459 0 143 0V0Z" fill="black"/>
<path d="M74.954 23.925C74.0274 23.9272 73.1223 24.204 72.3531 24.7206C71.5839 25.2371 70.9851 25.9702 70.6325 26.827C70.2799 27.6839 70.1893 28.626 70.3721 29.5344C70.5549 30.4427 71.003 31.2765 71.6596 31.9302C72.3163 32.5839 73.152 33.0282 74.0612 33.207C74.9703 33.3857 75.9121 33.2909 76.7673 32.9344C77.6226 32.578 78.353 31.9759 78.8661 31.2044C79.3792 30.4329 79.652 29.5265 79.65 28.6C79.6592 27.9816 79.5439 27.3677 79.3109 26.7949C79.0778 26.2221 78.7318 25.7021 78.2935 25.2658C77.8552 24.8295 77.3335 24.486 76.7596 24.2556C76.1857 24.0253 75.5713 23.9128 74.953 23.925H74.954ZM74.954 31.438C74.3859 31.4777 73.8191 31.3456 73.3271 31.0589C72.8351 30.7722 72.4407 30.3441 72.1952 29.8303C71.9498 29.3164 71.8645 28.7406 71.9506 28.1777C72.0368 27.6148 72.2902 27.0909 72.6781 26.6739C73.0659 26.257 73.5702 25.9664 74.1254 25.8398C74.6807 25.7133 75.2611 25.7567 75.7913 25.9645C76.3215 26.1722 76.777 26.5346 77.0985 27.0047C77.4199 27.4747 77.5926 28.0305 77.594 28.6C77.6116 28.9608 77.5568 29.3214 77.4328 29.6607C77.3089 30 77.1183 30.311 76.8722 30.5755C76.6262 30.8399 76.3297 31.0525 76.0003 31.2006C75.6709 31.3488 75.3151 31.4295 74.954 31.438ZM64.702 23.925C63.7755 23.9273 62.8705 24.2044 62.1014 24.7211C61.3323 25.2377 60.7337 25.9709 60.3812 26.8277C60.0288 27.6846 59.9383 28.6267 60.1212 29.535C60.3042 30.4433 60.7523 31.2769 61.409 31.9305C62.0657 32.5841 62.9014 33.0284 63.8106 33.207C64.7197 33.3857 65.6614 33.2908 66.5166 32.9343C67.3718 32.5778 68.1021 31.9758 68.6151 31.2043C69.1282 30.4328 69.401 29.5265 69.399 28.6C69.4082 27.9816 69.2929 27.3677 69.0599 26.7949C68.8268 26.2221 68.4808 25.7021 68.0425 25.2658C67.6042 24.8295 67.0825 24.486 66.5086 24.2556C65.9347 24.0253 65.3203 23.9128 64.702 23.925ZM64.702 31.438C64.1339 31.4777 63.5671 31.3456 63.0751 31.0589C62.5831 30.7722 62.1887 30.3441 61.9432 29.8303C61.6978 29.3164 61.6125 28.7406 61.6986 28.1777C61.7848 27.6148 62.0382 27.0909 62.4261 26.6739C62.8139 26.257 63.3182 25.9664 63.8734 25.8398C64.4287 25.7133 65.0091 25.7567 65.5393 25.9645C66.0695 26.1722 66.525 26.5346 66.8465 27.0047C67.168 27.4747 67.3406 28.0305 67.342 28.6C67.3596 28.9608 67.3048 29.3214 67.1808 29.6607C67.0569 30 66.8663 30.311 66.6202 30.5755C66.3742 30.8399 66.0777 31.0525 65.7483 31.2006C65.4189 31.3488 65.0631 31.4295 64.702 31.438ZM52.514 25.366V27.346H57.266C57.1915 28.2786 56.8038 29.1585 56.166 29.843C55.6894 30.3287 55.116 30.7089 54.4832 30.959C53.8503 31.2092 53.1719 31.3236 52.492 31.295C51.0917 31.295 49.7487 30.7387 48.7585 29.7485C47.7683 28.7583 47.212 27.4153 47.212 26.015C47.212 24.6146 47.7683 23.2716 48.7585 22.2815C49.7487 21.2913 51.0917 20.735 52.492 20.735C53.8345 20.715 55.1308 21.2248 56.1 22.154L57.497 20.757C56.8414 20.1085 56.0629 19.5975 55.2073 19.2537C54.3517 18.9099 53.436 18.7404 52.514 18.755C51.534 18.7135 50.5558 18.8707 49.6382 19.2172C48.7205 19.5636 47.8825 20.0921 47.1744 20.7708C46.4663 21.4496 45.9029 22.2646 45.5179 23.1667C45.133 24.0689 44.9346 25.0396 44.9346 26.0205C44.9346 27.0013 45.133 27.972 45.5179 28.8742C45.9029 29.7764 46.4663 30.5914 47.1744 31.2701C47.8825 31.9489 48.7205 32.4774 49.6382 32.8238C50.5558 33.1702 51.534 33.3274 52.514 33.286C53.4548 33.3234 54.3929 33.1615 55.2667 32.8107C56.1404 32.46 56.9302 31.9285 57.584 31.251C58.7395 29.9822 59.3554 28.3132 59.301 26.598C59.3046 26.1851 59.2712 25.7728 59.201 25.366H52.514ZM102.355 26.906C102.068 26.0621 101.531 25.3253 100.816 24.7931C100.101 24.2608 99.2417 23.9581 98.351 23.925C97.7493 23.9238 97.1538 24.046 96.6012 24.2842C96.0486 24.5223 95.5507 24.8712 95.1383 25.3094C94.7259 25.7475 94.4078 26.2656 94.2036 26.8316C93.9994 27.3976 93.9134 27.9994 93.951 28.6C93.9416 29.6041 94.2573 30.5843 94.8509 31.3943C95.4446 32.2042 96.2843 32.8003 97.2447 33.0936C98.2051 33.3869 99.2346 33.3617 100.179 33.0217C101.124 32.6816 101.934 32.045 102.487 31.207L100.892 30.107C100.654 30.5035 100.317 30.8309 99.9133 31.0567C99.5099 31.2825 99.0543 31.3987 98.592 31.394C98.1154 31.4136 97.644 31.2886 97.2397 31.0353C96.8355 30.782 96.5173 30.4124 96.327 29.975L102.586 27.39L102.355 26.906ZM95.975 28.468C95.9527 28.1263 95.9988 27.7836 96.1106 27.46C96.2224 27.1363 96.3977 26.8382 96.6261 26.5832C96.8545 26.3281 97.1316 26.1212 97.441 25.9745C97.7504 25.8278 98.0859 25.7443 98.428 25.729C98.7824 25.7073 99.1354 25.7908 99.4426 25.9688C99.7498 26.1469 99.9976 26.4117 100.155 26.73L95.975 28.468ZM90.893 33H92.95V19.25H90.893V33ZM87.527 24.97H87.45C87.1377 24.63 86.7562 24.3609 86.3312 24.1806C85.9062 24.0004 85.4475 23.9132 84.986 23.925C83.7839 23.9833 82.6503 24.5018 81.8202 25.3732C80.99 26.2446 80.527 27.402 80.527 28.6055C80.527 29.809 80.99 30.9664 81.8202 31.8377C82.6503 32.7091 83.7839 33.2277 84.986 33.286C85.4524 33.2953 85.915 33.2016 86.341 33.0114C86.7669 32.8213 87.1456 32.5394 87.45 32.186H87.527V32.857C87.527 34.65 86.57 35.607 85.03 35.607C84.5156 35.5957 84.0161 35.4317 83.595 35.136C83.1739 34.8403 82.8502 34.4261 82.665 33.946L80.883 34.683C81.2125 35.5104 81.7853 36.2185 82.5257 36.7134C83.2662 37.2084 84.1394 37.4669 85.03 37.455C87.439 37.455 89.43 36.036 89.43 32.582V24.2H87.527V24.97ZM85.162 31.438C84.4384 31.3972 83.7578 31.081 83.26 30.5542C82.7621 30.0275 82.4847 29.3302 82.4847 28.6055C82.4847 27.8807 82.7621 27.1834 83.26 26.6567C83.7578 26.13 84.4384 25.8138 85.162 25.773C85.5143 25.7882 85.8599 25.8741 86.1782 26.0256C86.4966 26.1771 86.7813 26.3911 87.0153 26.6548C87.2493 26.9186 87.4278 27.2267 87.5403 27.5609C87.6528 27.895 87.6969 28.2484 87.67 28.6C87.7 28.9527 87.6582 29.3079 87.547 29.644C87.4358 29.9802 87.2576 30.2903 87.0232 30.5555C86.7887 30.8208 86.5029 31.0358 86.183 31.1875C85.8631 31.3392 85.5158 31.4244 85.162 31.438ZM111.99 19.25H107.062V33H109.119V27.786H111.99C112.575 27.826 113.162 27.7454 113.715 27.5491C114.267 27.3527 114.774 27.0449 115.202 26.6446C115.631 26.2444 115.972 25.7603 116.206 25.2224C116.44 24.6846 116.56 24.1044 116.56 23.518C116.56 22.9316 116.44 22.3514 116.206 21.8135C115.972 21.2757 115.631 20.7916 115.202 20.3913C114.774 19.9911 114.267 19.6832 113.715 19.4869C113.162 19.2905 112.575 19.2099 111.99 19.25ZM111.99 25.85H109.119V21.164H112.034C112.5 21.1632 112.955 21.3008 113.343 21.5593C113.731 21.8179 114.033 22.1856 114.211 22.616C114.389 23.0464 114.435 23.5201 114.344 23.9769C114.253 24.4337 114.028 24.8531 113.698 25.182C113.257 25.624 112.658 25.872 112.034 25.872L111.99 25.85ZM124.684 23.881C123.935 23.835 123.189 24.0096 122.538 24.3829C121.887 24.7563 121.36 25.3122 121.021 25.982L122.836 26.741C123.019 26.41 123.294 26.1392 123.628 25.9615C123.962 25.7838 124.34 25.7069 124.717 25.74C124.978 25.7092 125.243 25.7308 125.496 25.8035C125.748 25.8763 125.984 25.9987 126.189 26.1636C126.394 26.3285 126.564 26.5326 126.689 26.7639C126.814 26.9953 126.891 27.2493 126.917 27.511V27.643C126.256 27.2954 125.519 27.1141 124.772 27.115C122.814 27.115 120.812 28.215 120.812 30.217C120.831 30.6426 120.935 31.0601 121.119 31.4444C121.303 31.8288 121.562 32.1721 121.882 32.454C122.201 32.7363 122.573 32.9516 122.977 33.087C123.381 33.2223 123.808 33.2751 124.233 33.242C124.749 33.2708 125.264 33.1617 125.724 32.9259C126.184 32.69 126.573 32.3359 126.851 31.9H126.917V33H128.897V27.709C128.897 25.3 127.071 23.903 124.728 23.903L124.684 23.881ZM124.431 31.416C123.76 31.416 122.825 31.075 122.825 30.25C122.825 29.15 123.991 28.776 125.025 28.776C125.678 28.7599 126.324 28.9195 126.895 29.238C126.826 29.8354 126.543 30.3874 126.098 30.792C125.653 31.1965 125.076 31.426 124.475 31.438L124.431 31.416ZM136.113 24.2L133.759 30.162H133.693L131.251 24.2H129.051L132.714 32.538L130.624 37.169H132.824L138.401 24.2H136.113ZM117.633 33H119.679V19.25H117.633V33Z" fill="white"/>
<path d="M11.484 8.29398C11.1334 8.72744 10.9604 9.27786 11 9.83398V34.166C10.9626 34.7274 11.1484 35.2809 11.517 35.706L11.594 35.794L25.19 22.165V21.835L11.561 8.21698L11.484 8.29398Z" fill="url(#paint0_linear)"/>
<path d="M29.7 26.708L25.19 22.165V21.835L29.7 17.292L29.799 17.358L35.199 20.416C36.739 21.285 36.739 22.715 35.199 23.595L29.821 26.653L29.7 26.708Z" fill="url(#paint1_linear)"/>
<path d="M29.832 26.642L25.19 22L11.484 35.706C11.7948 35.9827 12.1927 36.1419 12.6086 36.1559C13.0245 36.17 13.4322 36.038 13.761 35.783L29.831 26.642" fill="url(#paint2_linear)"/>
<path d="M29.832 17.358L13.76 8.22799C13.4333 7.9694 13.0259 7.83425 12.6095 7.84633C12.193 7.8584 11.7941 8.01691 11.483 8.29399L25.19 22L29.832 17.358Z" fill="url(#paint3_linear)"/>
<path opacity="0.2" d="M29.7 26.543L13.76 35.618C13.4431 35.8571 13.057 35.9865 12.66 35.9865C12.263 35.9865 11.8769 35.8571 11.56 35.618L11.484 35.695L11.561 35.783C11.8779 36.0221 12.264 36.1515 12.661 36.1515C13.058 36.1515 13.4441 36.0221 13.761 35.783L29.831 26.642L29.7 26.543Z" fill="black"/>
<path opacity="0.12" d="M11.484 35.552C11.1307 35.1157 10.9575 34.5608 11 34.001V34.166C10.9625 34.7274 11.1483 35.281 11.517 35.706L11.594 35.629L11.484 35.552ZM35.2 23.43L29.7 26.543L29.8 26.642L35.2 23.584C35.5188 23.4492 35.7954 23.2309 36.0006 22.9522C36.2058 22.6734 36.332 22.3445 36.366 22C36.2972 22.313 36.1559 22.6055 35.9533 22.8539C35.7508 23.1023 35.4928 23.2996 35.2 23.43Z" fill="black"/>
<path opacity="0.25" d="M13.761 8.382L35.2 20.57C35.4927 20.7004 35.7507 20.8978 35.9533 21.1462C36.1558 21.3946 36.2972 21.687 36.366 22C36.332 21.6555 36.2058 21.3266 36.0006 21.0478C35.7954 20.7691 35.5188 20.5508 35.2 20.416L13.761 8.228C12.232 7.348 11 8.074 11 9.834V10C11 8.24 12.232 7.514 13.761 8.383V8.382Z" fill="white"/>
<path d="M46.32 15.697H45.518V13.497H46.2C46.5069 13.1639 46.7376 12.768 46.8763 12.3369C47.0149 11.9057 47.0582 11.4496 47.003 11V7.70002H51.403V13.486H52.14V15.686H51.326V14.3H46.32V15.697ZM47.85 11C47.8991 11.8836 47.6806 12.7615 47.223 13.519H50.523V8.51402H47.85V11ZM58.751 13.442C58.4332 13.7599 58.056 14.012 57.6407 14.184C57.2255 14.356 56.7805 14.4446 56.331 14.4446C55.8816 14.4446 55.4365 14.356 55.0213 14.184C54.6061 14.012 54.2288 13.7599 53.911 13.442C53.5952 13.1199 53.3468 12.738 53.1806 12.3187C53.0144 11.8993 52.9336 11.451 52.943 11C52.9321 10.5498 53.0111 10.1019 53.1755 9.68259C53.3398 9.26328 53.5861 8.88096 53.9 8.55802C54.2176 8.23993 54.5949 7.98759 55.0101 7.81542C55.4254 7.64325 55.8705 7.55463 56.32 7.55463C56.7695 7.55463 57.2146 7.64325 57.6299 7.81542C58.0451 7.98759 58.4224 8.23993 58.74 8.55802C59.0598 8.8783 59.3121 9.2594 59.4821 9.67883C59.6522 10.0982 59.7365 10.5475 59.73 11C59.7432 11.4525 59.6631 11.9028 59.4946 12.3229C59.3262 12.743 59.0731 13.124 58.751 13.442ZM54.538 12.892C54.7698 13.1327 55.0485 13.3233 55.3569 13.452C55.6653 13.5807 55.9969 13.6447 56.331 13.64C56.6654 13.6466 56.9976 13.5836 57.3063 13.4548C57.6149 13.326 57.8934 13.1343 58.124 12.892C58.3698 12.6439 58.562 12.3479 58.6888 12.0225C58.8155 11.697 58.8742 11.349 58.861 11C58.8743 10.651 58.8157 10.303 58.6889 9.9775C58.5622 9.65204 58.3699 9.3561 58.124 9.10802C57.8934 8.86574 57.6149 8.67412 57.3062 8.54534C56.9975 8.41656 56.6654 8.35345 56.331 8.36002C55.9969 8.35538 55.6653 8.41938 55.3569 8.54804C55.0485 8.6767 54.7698 8.86729 54.538 9.10802C54.2958 9.35822 54.1066 9.65479 53.9819 9.97991C53.8571 10.305 53.7993 10.652 53.812 11C53.7993 11.348 53.8571 11.695 53.9819 12.0201C54.1066 12.3452 54.2958 12.6418 54.538 12.892ZM63.998 14.443C63.5438 14.4523 63.0925 14.3696 62.6711 14.1997C62.2498 14.0298 61.8673 13.7764 61.5466 13.4546C61.2258 13.1329 60.9736 12.7495 60.8051 12.3277C60.6366 11.9058 60.5552 11.4542 60.566 11C60.557 10.5399 60.6443 10.083 60.8224 9.65864C61.0004 9.23429 61.2653 8.85189 61.6 8.53602C61.9181 8.21409 62.2991 7.96105 62.7192 7.79263C63.1393 7.62421 63.5896 7.54401 64.042 7.55702C64.5025 7.54399 64.9599 7.63631 65.3793 7.82695C65.7987 8.01758 66.169 8.30149 66.462 8.65702L65.879 9.22902C65.6629 8.95118 65.3833 8.72925 65.0636 8.58186C64.744 8.43448 64.3936 8.36594 64.042 8.38202C63.7034 8.37338 63.3666 8.43433 63.0526 8.5611C62.7385 8.68787 62.4537 8.87776 62.216 9.11902C61.9634 9.36185 61.7637 9.6543 61.6294 9.978C61.4952 10.3017 61.4293 10.6497 61.436 11C61.4136 11.522 61.5526 12.0382 61.8341 12.4784C62.1155 12.9186 62.5258 13.2613 63.009 13.46C63.323 13.588 63.659 13.649 63.999 13.64C64.3825 13.6383 64.7609 13.5516 65.1069 13.3861C65.4529 13.2206 65.7579 12.9805 66 12.683L66.594 13.266C66.2927 13.6272 65.9176 13.9197 65.494 14.124C65.026 14.343 64.514 14.452 63.998 14.443ZM70.049 14.3H69.2V8.51402H67.353V7.70002H71.884V8.51402H70.047V14.3H70.049ZM77.715 7.70002L75.218 13.266C75.1573 13.4891 75.0488 13.6963 74.9002 13.8733C74.7515 14.0504 74.5661 14.193 74.3569 14.2913C74.1477 14.3896 73.9196 14.4413 73.6884 14.4429C73.4572 14.4444 73.2285 14.3956 73.018 14.3L73.238 13.519C73.3726 13.5946 73.5237 13.6362 73.678 13.64C73.8408 13.6482 74.0021 13.6059 74.14 13.519C74.274 13.408 74.376 13.264 74.437 13.101L74.679 12.573L72.457 7.70002H73.458L75.086 11.484L76.714 7.70002H77.715ZM78.672 14.3V7.70002H83.446V14.3H82.599V8.51402H79.519V14.3H78.672ZM84.953 14.3V7.70002H85.8V10.527H89.1V7.70002H89.958V14.3H89.1V11.319H85.8V14.3H84.953ZM96.866 13.442C96.4676 13.8405 95.977 14.1345 95.4376 14.2977C94.8983 14.4608 94.327 14.4882 93.7745 14.3774C93.222 14.2666 92.7055 14.0209 92.2708 13.6624C91.8362 13.3038 91.4968 12.8434 91.283 12.322C91.1146 11.9022 91.0342 11.4522 91.047 11C91.0341 10.5475 91.1145 10.0972 91.2831 9.67712C91.4517 9.25701 91.7049 8.87608 92.027 8.55802C92.3438 8.24054 92.72 7.98866 93.1342 7.8168C93.5485 7.64494 93.9925 7.55648 94.441 7.55648C94.8895 7.55648 95.3335 7.64494 95.7478 7.8168C96.162 7.98866 96.5383 8.24054 96.855 8.55802C97.1771 8.87608 97.4303 9.25701 97.5989 9.67712C97.7675 10.0972 97.8479 10.5475 97.835 11C97.8493 11.4517 97.7707 11.9015 97.604 12.3216C97.4373 12.7417 97.1861 13.123 96.866 13.442ZM92.653 12.892C92.8835 13.1344 93.162 13.3262 93.4707 13.455C93.7794 13.5837 94.1116 13.6468 94.446 13.64C94.7802 13.6448 95.1117 13.5808 95.4202 13.4522C95.7286 13.3235 96.0073 13.1328 96.239 12.892C96.4812 12.6418 96.6703 12.3452 96.7951 12.0201C96.9198 11.695 96.9776 11.348 96.965 11C96.9777 10.652 96.9199 10.305 96.7951 9.97991C96.6704 9.65479 96.4812 9.35822 96.239 9.10802C96.0072 8.86729 95.7285 8.6767 95.4201 8.54804C95.1117 8.41938 94.7801 8.35538 94.446 8.36002C94.1116 8.35345 93.7795 8.41656 93.4708 8.54534C93.1621 8.67412 92.8836 8.86574 92.653 9.10802C92.4072 9.35617 92.215 9.65212 92.0882 9.97756C91.9615 10.303 91.9028 10.651 91.916 11C91.9027 11.349 91.9613 11.6971 92.0881 12.0225C92.2148 12.348 92.4071 12.6439 92.653 12.892ZM101.299 14.3V7.70002H103.686C104.181 7.69505 104.66 7.87557 105.028 8.20602C105.212 8.36549 105.358 8.56344 105.457 8.78585C105.556 9.00826 105.605 9.24968 105.6 9.49302C105.602 9.78902 105.518 10.08 105.358 10.329C105.196 10.5654 104.971 10.7523 104.709 10.869C105.025 10.974 105.301 11.173 105.501 11.44C105.711 11.706 105.823 12.036 105.82 12.375C105.825 12.6286 105.775 12.8802 105.672 13.112C105.57 13.3439 105.417 13.5505 105.226 13.717C104.844 14.0726 104.34 14.2661 103.818 14.257L101.299 14.3ZM102.146 10.527H103.686C103.83 10.5355 103.974 10.5112 104.108 10.4559C104.241 10.4007 104.36 10.3159 104.456 10.208C104.642 10.025 104.749 9.77606 104.753 9.51502C104.763 9.25302 104.673 8.99702 104.5 8.80002C104.407 8.69793 104.293 8.61744 104.166 8.56423C104.038 8.51101 103.901 8.48636 103.763 8.49202H102.146V10.527ZM102.146 13.487H103.851C104.002 13.4932 104.152 13.4657 104.291 13.4065C104.43 13.3474 104.554 13.258 104.654 13.145C104.844 12.9422 104.95 12.6749 104.951 12.397C104.946 12.1825 104.878 11.9741 104.757 11.7974C104.635 11.6207 104.465 11.4833 104.266 11.402C104.124 11.3433 103.972 11.315 103.818 11.319H102.146V13.486V13.487Z" fill="white" stroke="white" stroke-width="0.2" stroke-miterlimit="10"/>
<defs>
<linearGradient id="paint0_linear" x1="23.98" y1="9.58098" x2="5.52201" y2="28.039" gradientUnits="userSpaceOnUse">
<stop stop-color="#00A0FF"/>
<stop offset="0.01" stop-color="#00A1FF"/>
<stop offset="0.26" stop-color="#00BEFF"/>
<stop offset="0.51" stop-color="#00D2FF"/>
<stop offset="0.76" stop-color="#00DFFF"/>
<stop offset="1" stop-color="#00E3FF"/>
</linearGradient>
<linearGradient id="paint1_linear" x1="37.213" y1="22" x2="10.604" y2="22" gradientUnits="userSpaceOnUse">
<stop stop-color="#FFE000"/>
<stop offset="0.41" stop-color="#FFBD00"/>
<stop offset="0.78" stop-color="#FFA500"/>
<stop offset="1" stop-color="#FF9C00"/>
</linearGradient>
<linearGradient id="paint2_linear" x1="27.313" y1="24.53" x2="2.27701" y2="49.555" gradientUnits="userSpaceOnUse">
<stop stop-color="#FF3A44"/>
<stop offset="1" stop-color="#C31162"/>
</linearGradient>
<linearGradient id="paint3_linear" x1="8.03" y1="0.19799" x2="19.206" y2="11.374" gradientUnits="userSpaceOnUse">
<stop stop-color="#32A071"/>
<stop offset="0.07" stop-color="#2DA771"/>
<stop offset="0.48" stop-color="#15CF74"/>
<stop offset="0.8" stop-color="#06E775"/>
<stop offset="1" stop-color="#00F076"/>
</linearGradient>
</defs>
</svg>
