<svg width="109" height="20" viewBox="0 0 109 20" fill="none" xmlns="http://www.w3.org/2000/svg">
<path d="M10.0466 0H18.8374L26.3724 7.04799V15.1803H10.0466V0Z" fill="#282828"/>
<rect x="7.53503" width="5.02332" height="2.53005" fill="#282828"/>
<rect x="5.02332" y="6.32513" width="8.79082" height="2.53005" fill="#282828"/>
<rect x="2.51178" y="3.79504" width="6.27915" height="1.26502" fill="#282828"/>
<rect y="10.1202" width="8.79082" height="1.26502" fill="#282828"/>
<rect x="2.51178" y="12.6502" width="10.0466" height="2.53005" fill="#282828"/>
<path d="M17.5815 17.1953C19.3881 17.1953 20.8432 15.7217 20.8432 13.9153C20.8432 12.1089 19.3881 10.6353 17.5815 10.6353C15.775 10.6353 14.3199 12.1089 14.3199 13.9153C14.3199 15.7217 15.775 17.1953 17.5815 17.1953Z" fill="#282828" stroke="white" stroke-width="1.5"/>
<path d="M37.5715 15.4839C35.9632 15.4839 34.6609 15.0538 33.6646 14.1935C32.6683 13.319 32.1346 12.1075 32.0634 10.5591L32.0421 9.69892L32.0634 8.81719C32.1203 7.26881 32.6469 6.05734 33.6432 5.18278C34.6538 4.30823 35.9632 3.87095 37.5715 3.87095C38.7813 3.87095 39.7989 4.09318 40.6244 4.53762C41.4641 4.96773 42.0833 5.49103 42.4818 6.10751C42.8945 6.70967 43.1151 7.26164 43.1436 7.76343C43.1578 7.9068 43.108 8.03583 42.9942 8.15053C42.8945 8.25089 42.7664 8.30106 42.6099 8.30106H39.8985C39.742 8.30106 39.621 8.26522 39.5356 8.19354C39.4502 8.12185 39.3719 8.01433 39.3008 7.87096C39.13 7.42651 38.9094 7.1111 38.6389 6.92472C38.3827 6.73834 38.0483 6.64515 37.6355 6.64515C36.4684 6.64515 35.8635 7.40501 35.8208 8.92472L35.7995 9.74193L35.8208 10.4516C35.8493 11.2258 36.013 11.7993 36.3119 12.172C36.625 12.5305 37.0662 12.7097 37.6355 12.7097C38.0767 12.7097 38.4254 12.6165 38.6816 12.4301C38.9378 12.2437 39.1442 11.9283 39.3008 11.4839C39.3719 11.3405 39.4502 11.233 39.5356 11.1613C39.621 11.0896 39.742 11.0538 39.8985 11.0538H42.6099C42.7522 11.0538 42.8732 11.1039 42.9728 11.2043C43.0867 11.2903 43.1436 11.405 43.1436 11.5484C43.1436 12.0072 42.9443 12.5448 42.5458 13.1613C42.1615 13.7778 41.5495 14.3226 40.7098 14.7957C39.8701 15.2545 38.824 15.4839 37.5715 15.4839Z" fill="#303030"/>
<path d="M48.3921 15.4839C47.6378 15.4839 46.9475 15.3405 46.3213 15.0538C45.7093 14.7527 45.2254 14.3512 44.8695 13.8495C44.528 13.3333 44.3572 12.767 44.3572 12.1505C44.3572 11.1613 44.7557 10.3656 45.5527 9.76343C46.364 9.16128 47.4741 8.74551 48.8832 8.51612L51.5518 8.10752V7.80644C51.5518 7.26164 51.438 6.8602 51.2102 6.60214C50.9825 6.34407 50.5982 6.21504 50.0574 6.21504C49.73 6.21504 49.4596 6.27239 49.2461 6.38708C49.0326 6.50178 48.812 6.65949 48.5843 6.8602C48.385 7.03225 48.2356 7.14694 48.136 7.20429C48.0933 7.31898 48.015 7.37633 47.9011 7.37633H45.5741C45.4317 7.37633 45.3108 7.33332 45.2111 7.2473C45.1257 7.14694 45.0901 7.03225 45.1044 6.90321C45.1186 6.51612 45.3036 6.08601 45.6595 5.61289C46.0295 5.13977 46.5846 4.73117 47.3247 4.38708C48.079 4.043 49.0042 3.87095 50.1001 3.87095C51.8507 3.87095 53.1459 4.26522 53.9856 5.05375C54.8253 5.82794 55.2452 6.87454 55.2452 8.19354V14.7312C55.2452 14.8745 55.1954 15.0036 55.0958 15.1183C54.9961 15.2186 54.868 15.2688 54.7115 15.2688H52.235C52.0927 15.2688 51.9646 15.2186 51.8507 15.1183C51.7511 15.0036 51.7013 14.8745 51.7013 14.7312V13.9785C51.3881 14.4229 50.9469 14.7885 50.3776 15.0753C49.8225 15.3477 49.1607 15.4839 48.3921 15.4839ZM49.3956 13.0323C50.0503 13.0323 50.5769 12.8172 50.9754 12.3871C51.3881 11.957 51.5945 11.3262 51.5945 10.4946V10.1935L49.7798 10.5161C48.4989 10.7455 47.8584 11.1971 47.8584 11.871C47.8584 12.2294 48.0079 12.5161 48.3067 12.7312C48.6056 12.9319 48.9686 13.0323 49.3956 13.0323Z" fill="#303030"/>
<path d="M58.1881 15.2688C58.0315 15.2688 57.9034 15.2186 57.8038 15.1183C57.7041 15.0179 57.6543 14.8889 57.6543 14.7312V4.62364C57.6543 4.46594 57.7041 4.3369 57.8038 4.23655C57.9034 4.13619 58.0315 4.08601 58.1881 4.08601H60.6432C60.7998 4.08601 60.9279 4.14336 61.0275 4.25805C61.1414 4.35841 61.1983 4.48027 61.1983 4.62364V5.48386C61.9811 4.55196 63.0343 4.08601 64.358 4.08601H65.2973C65.4539 4.08601 65.582 4.13619 65.6816 4.23655C65.7812 4.3369 65.831 4.46594 65.831 4.62364V6.8387C65.831 6.98207 65.7812 7.1111 65.6816 7.2258C65.582 7.32615 65.4539 7.37633 65.2973 7.37633H63.2264C62.6429 7.37633 62.1875 7.54121 61.8601 7.87096C61.547 8.18637 61.3904 8.63798 61.3904 9.2258V14.7312C61.3904 14.8889 61.3335 15.0179 61.2196 15.1183C61.12 15.2186 60.9919 15.2688 60.8353 15.2688H58.1881Z" fill="#303030"/>
<path d="M73.0279 15.2688C70.0817 15.2688 68.6086 13.8566 68.6086 11.0322V6.90321H66.9434C66.7868 6.90321 66.6516 6.85303 66.5377 6.75268C66.4381 6.65232 66.3883 6.52329 66.3883 6.36558V4.62364C66.3883 4.46594 66.4381 4.3369 66.5377 4.23655C66.6516 4.13619 66.7868 4.08601 66.9434 4.08601H68.6086V3.06766C68.6086 2.90996 68.6584 2.78093 68.758 2.68057C68.8719 2.58021 69 2.53003 69.1423 2.53003H71.6188C71.7754 2.53003 71.9035 2.58021 72.0031 2.68057C72.1027 2.78093 72.1526 2.90996 72.1526 3.06766V4.08601H74.8212C74.9778 4.08601 75.1058 4.13619 75.2055 4.23655C75.3193 4.3369 75.3763 4.46594 75.3763 4.62364V6.36558C75.3763 6.52329 75.3193 6.65232 75.2055 6.75268C75.1058 6.85303 74.9778 6.90321 74.8212 6.90321H72.1526V10.7312C72.1526 11.7921 72.5582 12.3226 73.3694 12.3226H75.0133C75.1699 12.3226 75.298 12.3728 75.3976 12.4731C75.4972 12.5735 75.5471 12.7025 75.5471 12.8602V14.7312C75.5471 14.8745 75.4972 15.0036 75.3976 15.1183C75.298 15.2186 75.1699 15.2688 75.0133 15.2688H73.0279Z" fill="#303030"/>
<path d="M83.9571 15.2688C83.8006 15.2688 83.6725 15.2186 83.5728 15.1183C83.4732 15.0179 83.4234 14.8889 83.4234 14.7312V4.62364C83.4234 4.46594 83.4732 4.3369 83.5728 4.23655C83.6725 4.13619 83.8006 4.08601 83.9571 4.08601H86.4123C86.5688 4.08601 86.6969 4.13619 86.7966 4.23655C86.9104 4.3369 86.9673 4.46594 86.9673 4.62364V5.44085C87.3516 4.96773 87.8427 4.5878 88.4404 4.30106C89.0524 4.01432 89.7427 3.87095 90.5113 3.87095C91.7638 3.87095 92.7814 4.30106 93.5642 5.16128C94.347 6.00716 94.7384 7.19712 94.7384 8.73117V14.7312C94.7384 14.8745 94.6886 15.0036 94.589 15.1183C94.4893 15.2186 94.3613 15.2688 94.2047 15.2688H91.5147C91.3724 15.2688 91.2443 15.2186 91.1304 15.1183C91.0308 15.0036 90.981 14.8745 90.981 14.7312V8.8602C90.981 8.18637 90.8173 7.67024 90.4899 7.31182C90.1626 6.93906 89.6929 6.75268 89.0809 6.75268C88.4831 6.75268 88.0134 6.93906 87.6719 7.31182C87.3303 7.67024 87.1595 8.18637 87.1595 8.8602V14.7312C87.1595 14.8745 87.1097 15.0036 87.01 15.1183C86.9104 15.2186 86.7823 15.2688 86.6258 15.2688H83.9571Z" fill="#303030"/>
<path d="M102.586 20C101.234 20 100.138 19.7778 99.2981 19.3333C98.4584 18.8889 97.8535 18.3799 97.4835 17.8064C97.1276 17.233 96.9497 16.7527 96.9497 16.3656C96.9497 16.2366 97.0067 16.1219 97.1205 16.0215C97.2344 15.9211 97.3625 15.871 97.5048 15.871H100.216C100.358 15.871 100.465 15.8996 100.536 15.957C100.622 16.0287 100.7 16.1434 100.771 16.3011C100.914 16.6308 101.106 16.8889 101.348 17.0753C101.59 17.276 101.967 17.3763 102.479 17.3763C103.134 17.3763 103.618 17.2115 103.931 16.8817C104.244 16.5663 104.401 16.0287 104.401 15.2688V13.828C103.675 14.6308 102.636 15.0323 101.284 15.0323C99.8461 15.0323 98.743 14.6093 97.9745 13.7634C97.2201 12.9032 96.8074 11.6631 96.7362 10.043L96.7149 9.46236C96.7149 7.72759 97.0992 6.36558 97.8677 5.37633C98.6363 4.37275 99.7749 3.87095 101.284 3.87095C102.009 3.87095 102.65 4.01432 103.205 4.30106C103.76 4.57346 104.23 4.94622 104.614 5.41934V4.62364C104.614 4.46594 104.664 4.3369 104.764 4.23655C104.877 4.13619 105.005 4.08601 105.148 4.08601H107.603C107.759 4.08601 107.888 4.14336 107.987 4.25805C108.101 4.35841 108.158 4.48027 108.158 4.62364V14.9677C108.158 16.6021 107.674 17.8495 106.706 18.7097C105.738 19.5699 104.365 20 102.586 20ZM102.436 12.2366C103.077 12.2366 103.554 12.043 103.867 11.6559C104.18 11.2545 104.358 10.7527 104.401 10.1505C104.415 10.0502 104.422 9.82795 104.422 9.48386C104.422 9.15411 104.415 8.93906 104.401 8.8387C104.372 8.23655 104.194 7.74192 103.867 7.35483C103.554 6.95339 103.077 6.75268 102.436 6.75268C101.768 6.75268 101.284 6.95339 100.985 7.35483C100.686 7.75626 100.522 8.30823 100.494 9.01074L100.472 9.48386C100.472 10.3297 100.615 11.0036 100.899 11.5054C101.184 11.9928 101.696 12.2366 102.436 12.2366Z" fill="#303030"/>
<path d="M77.8484 15.2687C77.6918 15.2687 77.5637 15.2186 77.4641 15.1182C77.3645 15.0178 77.3146 14.8888 77.3146 14.7311V4.62357C77.3146 4.46587 77.3645 4.33683 77.4641 4.23648C77.5637 4.13612 77.6918 4.08594 77.8484 4.08594H80.3676C80.5241 4.08594 80.6522 4.13612 80.7518 4.23648C80.8515 4.33683 80.9013 4.46587 80.9013 4.62357V14.7311C80.9013 14.8745 80.8515 15.0035 80.7518 15.1182C80.6522 15.2186 80.5241 15.2687 80.3676 15.2687H77.8484Z" fill="#72B819"/>
</svg>
