<svg width="23" height="99" viewBox="0 0 23 99" fill="none" xmlns="http://www.w3.org/2000/svg">
<path d="M17.1913 91.3609C17.1913 93.4296 16.6381 95.1046 15.5317 96.386C14.4069 97.6675 12.8487 98.3539 10.8571 98.4455L9.7507 98.4729L8.61663 98.4455C6.62508 98.3722 5.06688 97.6949 3.94202 96.4135C2.81716 95.1137 2.25474 93.4296 2.25474 91.3609C2.25474 89.8049 2.54056 88.496 3.11221 87.4343C3.66542 86.3542 4.33848 85.5579 5.13142 85.0453C5.90591 84.5144 6.61586 84.2307 7.26127 84.194C7.44567 84.1757 7.61163 84.2398 7.75915 84.3863C7.88823 84.5144 7.95278 84.6792 7.95278 84.8805L7.95278 88.3679C7.95278 88.5692 7.90668 88.7248 7.81447 88.8347C7.72227 88.9445 7.58397 89.0452 7.39957 89.1367C6.82792 89.3564 6.42223 89.6402 6.18251 89.988C5.94279 90.3175 5.82293 90.7477 5.82293 91.2786C5.82293 92.7797 6.80026 93.5577 8.75493 93.6126L9.80602 93.6401L10.7188 93.6126C11.7146 93.576 12.4522 93.3655 12.9316 92.9811C13.3927 92.5783 13.6232 92.0108 13.6232 91.2786C13.6232 90.7111 13.5033 90.2626 13.2636 89.9331C13.0238 89.6035 12.6182 89.3381 12.0465 89.1367C11.8621 89.0452 11.7238 88.9445 11.6316 88.8347C11.5394 88.7248 11.4933 88.5692 11.4933 88.3679L11.4933 84.8805C11.4933 84.6975 11.5578 84.5419 11.6869 84.4137C11.7976 84.2673 11.9451 84.194 12.1295 84.194C12.7196 84.194 13.4111 84.4503 14.204 84.9629C14.997 85.4572 15.6977 86.2443 16.3062 87.3244C16.8963 88.4045 17.1913 89.75 17.1913 91.3609Z" fill="#282828"/>
<path d="M17.1913 77.4433C17.1913 78.4136 17.0069 79.3014 16.6381 80.1069C16.2509 80.8941 15.7346 81.5165 15.0892 81.9741C14.4253 82.4135 13.6969 82.6331 12.904 82.6331C11.6316 82.6331 10.6082 82.1206 9.83368 81.0954C9.05919 80.052 8.52442 78.6241 8.22938 76.8118L7.70383 73.3793L7.31659 73.3793C6.61586 73.3793 6.09953 73.5258 5.7676 73.8187C5.43568 74.1116 5.26972 74.6059 5.26972 75.3015C5.26972 75.7225 5.34348 76.0704 5.491 76.3449C5.63852 76.6195 5.84136 76.9033 6.09953 77.1962C6.32081 77.4525 6.46833 77.6447 6.5421 77.7728C6.68962 77.8278 6.76338 77.9284 6.76338 78.0749L6.76338 81.068C6.76338 81.251 6.70806 81.4066 6.59742 81.5348C6.46833 81.6446 6.32081 81.6904 6.15485 81.6721C5.65696 81.6538 5.10376 81.4158 4.49523 80.9581C3.8867 80.4822 3.36115 79.7682 2.91858 78.8163C2.47602 77.8461 2.25473 76.6562 2.25473 75.2466C2.25473 72.9949 2.76184 71.329 3.77606 70.249C4.77183 69.1689 6.11797 68.6289 7.81447 68.6289L16.2232 68.6289C16.4076 68.6289 16.5736 68.6929 16.7211 68.8211C16.8502 68.9492 16.9147 69.114 16.9147 69.3153L16.9147 72.5006C16.9147 72.6837 16.8502 72.8484 16.7211 72.9949C16.5736 73.123 16.4076 73.1871 16.2232 73.1871L15.2551 73.1871C15.8268 73.5899 16.297 74.1573 16.6658 74.8896C17.0162 75.6035 17.1913 76.4548 17.1913 77.4433ZM14.0381 76.1527C14.0381 75.3106 13.7615 74.6333 13.2082 74.1207C12.655 73.5899 11.8437 73.3244 10.7741 73.3244L10.3869 73.3244L10.8018 75.6585C11.0968 77.306 11.6777 78.1298 12.5444 78.1298C13.0054 78.1298 13.3742 77.9376 13.6508 77.5532C13.909 77.1687 14.0381 76.7019 14.0381 76.1527Z" fill="#282828"/>
<path d="M16.9147 64.8437C16.9147 65.0451 16.8502 65.2099 16.7211 65.338C16.592 65.4662 16.4261 65.5302 16.2232 65.5302L3.22285 65.5302C3.02 65.5302 2.85404 65.4662 2.72496 65.338C2.59588 65.2099 2.53134 65.0451 2.53134 64.8437L2.53134 61.6859C2.53134 61.4846 2.6051 61.3198 2.75262 61.1916C2.8817 61.0452 3.03845 60.972 3.22285 60.972L4.32926 60.972C3.13065 59.9651 2.53134 58.6105 2.53134 56.908L2.53134 55.6998C2.53134 55.4984 2.59588 55.3336 2.72496 55.2055C2.85404 55.0774 3.02 55.0133 3.22285 55.0133L6.07187 55.0133C6.25627 55.0133 6.42223 55.0774 6.56976 55.2055C6.69884 55.3336 6.76338 55.4984 6.76338 55.6998L6.76338 58.3633C6.76338 59.1139 6.97544 59.6997 7.39957 60.1207C7.80525 60.5235 8.38612 60.7248 9.14217 60.7248L16.2232 60.7248C16.4261 60.7248 16.592 60.7981 16.7211 60.9445C16.8502 61.0727 16.9147 61.2374 16.9147 61.4388L16.9147 64.8437Z" fill="#282828"/>
<path d="M16.9147 45.7567C16.9147 49.5461 15.0984 51.4408 11.4656 51.4408L6.15485 51.4408L6.15485 53.5826C6.15485 53.784 6.09031 53.9579 5.96123 54.1043C5.83214 54.2325 5.66618 54.2966 5.46334 54.2966L3.22285 54.2966C3.02 54.2966 2.85404 54.2325 2.72496 54.1043C2.59588 53.9579 2.53134 53.784 2.53134 53.5826L2.53134 51.4408L1.22154 51.4408C1.01869 51.4408 0.852732 51.3767 0.723651 51.2486C0.594568 51.1021 0.530027 50.9374 0.530027 50.7543L0.530027 47.569C0.530027 47.3676 0.594568 47.2029 0.72365 47.0747C0.852732 46.9466 1.01869 46.8825 1.22154 46.8825L2.53134 46.8825L2.53134 43.4501C2.53134 43.2487 2.59588 43.084 2.72496 42.9558C2.85404 42.8094 3.02 42.7361 3.22285 42.7361L5.46334 42.7361C5.66618 42.7361 5.83214 42.8094 5.96122 42.9558C6.09031 43.084 6.15485 43.2487 6.15485 43.4501L6.15485 46.8825L11.0784 46.8825C12.443 46.8825 13.1253 46.3608 13.1253 45.3173L13.1253 43.203C13.1253 43.0016 13.1898 42.8368 13.3189 42.7087C13.448 42.5805 13.6139 42.5165 13.8168 42.5165L16.2232 42.5165C16.4076 42.5165 16.5736 42.5805 16.7211 42.7087C16.8502 42.8368 16.9147 43.0016 16.9147 43.203L16.9147 45.7567Z" fill="#282828"/>
<path d="M16.9147 31.6994C16.9147 31.9008 16.8502 32.0655 16.7211 32.1937C16.592 32.3218 16.4261 32.3859 16.2232 32.3859L3.22285 32.3859C3.02 32.3859 2.85404 32.3218 2.72496 32.1937C2.59588 32.0655 2.53134 31.9008 2.53134 31.6994L2.53134 28.5416C2.53134 28.3402 2.59588 28.1754 2.72496 28.0473C2.85404 27.9008 3.02 27.8276 3.22285 27.8276L4.27394 27.8276C3.66541 27.3334 3.17675 26.7018 2.80794 25.9329C2.43913 25.1458 2.25473 24.2579 2.25473 23.2694C2.25473 21.6584 2.80794 20.3495 3.91436 19.3427C5.00233 18.3358 6.53287 17.8324 8.50598 17.8324L16.2232 17.8324C16.4076 17.8324 16.5736 17.8965 16.7211 18.0246C16.8502 18.1528 16.9147 18.3175 16.9147 18.5189L16.9147 21.9788C16.9147 22.1618 16.8502 22.3266 16.7211 22.473C16.5736 22.6012 16.4076 22.6653 16.2232 22.6653L8.67194 22.6653C7.80525 22.6653 7.1414 22.8758 6.68039 23.2968C6.20095 23.7179 5.96122 24.322 5.96122 25.1091C5.96122 25.878 6.20095 26.4821 6.68039 26.9215C7.1414 27.3608 7.80525 27.5805 8.67194 27.5805L16.2232 27.5805C16.4076 27.5805 16.5736 27.6446 16.7211 27.7727C16.8502 27.9008 16.9147 28.0656 16.9147 28.267L16.9147 31.6994Z" fill="#282828"/>
<path d="M23 7.73893C23 9.47803 22.7142 10.8876 22.1426 11.9677C21.5709 13.0477 20.9163 13.8258 20.1787 14.3017C19.4411 14.7594 18.8233 14.9882 18.3254 14.9882C18.1595 14.9882 18.0119 14.915 17.8829 14.7685C17.7538 14.6221 17.6892 14.4573 17.6892 14.2743L17.6892 10.7869C17.6892 10.6039 17.7261 10.4666 17.7999 10.375C17.8921 10.2652 18.0396 10.1645 18.2424 10.073C18.6666 9.88991 18.9985 9.64278 19.2382 9.33157C19.4964 9.02037 19.6255 8.53525 19.6255 7.87623C19.6255 7.03413 19.4134 6.41173 18.9893 6.00899C18.5836 5.60625 17.8921 5.40488 16.9147 5.40488L15.0615 5.40488C16.0941 6.3385 16.6105 7.67486 16.6105 9.41395C16.6105 11.2629 16.0665 12.6816 14.9785 13.6702C13.8721 14.6404 12.277 15.1713 10.1933 15.2628L9.44643 15.2903C7.21516 15.2903 5.46334 14.796 4.19096 13.8075C2.90014 12.8189 2.25473 11.3544 2.25473 9.41395C2.25473 8.48033 2.43913 7.65656 2.80794 6.9426C3.1583 6.22866 3.63775 5.62455 4.24628 5.13029L3.22284 5.13029C3.02 5.13029 2.85404 5.06622 2.72496 4.93807C2.59588 4.79162 2.53134 4.62686 2.53134 4.4438L2.53134 1.28596C2.53134 1.08459 2.6051 0.919845 2.75262 0.791695C2.8817 0.645248 3.03844 0.572029 3.22284 0.572029L16.5275 0.572028C18.6297 0.572028 20.234 1.19443 21.3404 2.43926C22.4468 3.68409 23 5.45064 23 7.73893ZM13.0146 7.93114C13.0146 7.10736 12.7657 6.4941 12.2678 6.09136C11.7515 5.68863 11.1061 5.4598 10.3316 5.40488C10.2025 5.38657 9.91666 5.37742 9.47409 5.37742C9.04997 5.37742 8.77336 5.38657 8.64428 5.40488C7.86979 5.4415 7.2336 5.67032 6.73571 6.09136C6.21939 6.4941 5.96122 7.10736 5.96122 7.93114C5.96122 8.79154 6.21939 9.41395 6.73571 9.79838C7.25204 10.1828 7.96199 10.3933 8.86557 10.43L9.47409 10.4574C10.5621 10.4574 11.4288 10.2743 12.0742 9.90822C12.7011 9.54209 13.0146 8.88307 13.0146 7.93114Z" fill="#282828"/>
<path d="M16.9146 39.5565C16.9146 39.7579 16.85 39.9226 16.721 40.0508C16.5919 40.1789 16.4259 40.243 16.2231 40.243L3.2227 40.243C3.01986 40.243 2.85389 40.1789 2.72481 40.0508C2.59573 39.9226 2.53119 39.7579 2.53119 39.5565L2.53119 36.3163C2.53119 36.1149 2.59573 35.9502 2.72481 35.822C2.85389 35.6939 3.01985 35.6298 3.2227 35.6298L16.2231 35.6298C16.4075 35.6298 16.5734 35.6939 16.721 35.822C16.85 35.9502 16.9146 36.1149 16.9146 36.3163L16.9146 39.5565Z" fill="#72B819"/>
</svg>
