<svg width="92" height="10" viewBox="0 0 92 10" fill="none" xmlns="http://www.w3.org/2000/svg">
<path fill-rule="evenodd" clip-rule="evenodd" d="M6.85344 8.17333C6.65493 7.95111 6.47927 7.76883 6.32679 7.6267C6.17423 7.48436 6.02167 7.37564 5.86911 7.29994C5.71654 7.22444 5.55333 7.17329 5.37962 7.1467C5.20575 7.12 5.00187 7.10666 4.76774 7.10666H1.94745V9.83993H0V0.160064H6.8641C7.52395 0.160064 8.06678 0.240153 8.49235 0.400017C8.918 0.560085 9.26565 0.795546 9.53524 1.10672C9.78352 1.39119 9.96626 1.74668 10.0833 2.17339C10.2004 2.6001 10.2589 3.08438 10.2589 3.62663C10.2589 4.16899 10.2004 4.65327 10.0833 5.07998C9.96626 5.50669 9.78352 5.86219 9.53524 6.14666C9.16628 6.58224 8.63784 6.86671 7.94968 7.00008C8.19089 7.11542 8.40542 7.25786 8.59344 7.42669C8.78146 7.59541 8.99964 7.82212 9.24792 8.1067L10.7591 9.83993H8.32214L6.85344 8.17333ZM6.67266 5.18676C7.03439 5.18676 7.31641 5.15548 7.51858 5.09332C7.72084 5.03117 7.88218 4.9244 8.00287 4.7734C8.18731 4.53335 8.27961 4.15106 8.27961 3.62663C8.27961 3.11107 8.18731 2.73338 8.00287 2.49332C7.88218 2.34232 7.72084 2.23554 7.51858 2.17339C7.31641 2.11103 7.03439 2.07996 6.67266 2.07996H1.94745V5.18676H6.67266ZM21.7203 9.83993H12.632V0.160064H21.6884V2.07996H14.5795V3.95991H19.3684V5.80003H14.5795V7.92004H21.7203V9.83993ZM31.745 8.0799H25.8707L24.9448 9.83993H22.7845L28.0311 0.160064H29.6168L34.8952 9.83993H32.6922L31.745 8.0799ZM26.8925 6.14666H30.7129L28.7867 2.55996L26.8925 6.14666ZM45.0689 9.83993H36.2998V0.160064H38.2472V7.92004H45.0689V9.83993ZM55.7427 2.04002H49.251C48.9816 2.04002 48.7509 2.05775 48.5594 2.09331C48.3678 2.12897 48.2224 2.20895 48.1231 2.33346C48.0167 2.45766 47.9635 2.63567 47.9635 2.86665C47.9635 3.15102 48.0503 3.35123 48.2242 3.46657C48.3979 3.58221 48.6552 3.65772 48.9957 3.69338L53.2419 4.10663C53.5825 4.14219 53.8893 4.18448 54.1624 4.23329C54.4356 4.28219 54.6785 4.34434 54.8914 4.42004C55.1042 4.49554 55.2941 4.58898 55.4607 4.70004C55.6274 4.8112 55.7746 4.94661 55.9024 5.10668C56.0656 5.31117 56.1968 5.56232 56.2961 5.85994C56.3954 6.15766 56.445 6.52008 56.445 6.94659C56.445 7.77342 56.2536 8.41777 55.8705 8.88004C55.6008 9.2178 55.2443 9.46223 54.8009 9.61323C54.3574 9.76443 53.781 9.83993 53.0716 9.83993H46.5694V7.95998H53.3376C53.7705 7.95998 54.0826 7.88662 54.2741 7.74C54.4657 7.59328 54.5614 7.36444 54.5614 7.05337C54.5614 6.77786 54.4869 6.57999 54.338 6.45986C54.1891 6.33994 53.9194 6.25772 53.5293 6.21329L49.5916 5.83997C49.3079 5.81338 49.0329 5.77996 48.7669 5.74002C48.5009 5.69998 48.249 5.6421 48.0113 5.5666C47.7736 5.4911 47.5501 5.39339 47.3409 5.27327C47.1316 5.15334 46.9453 5.00448 46.7822 4.82669C46.5906 4.62219 46.431 4.35769 46.3032 4.03327C46.1756 3.70886 46.1118 3.3333 46.1118 2.90659C46.1118 2.49781 46.1684 2.13998 46.282 1.83339C46.3955 1.52671 46.5444 1.2622 46.729 1.03998C46.9985 0.728913 47.3568 0.504344 47.8037 0.366692C48.2507 0.228938 48.7793 0.160064 49.3894 0.160064H55.7427V2.04002ZM64.618 7.87999C64.9799 7.87999 65.3045 7.87082 65.5919 7.8532C65.8791 7.83557 66.1363 7.80449 66.3634 7.75997C66.5904 7.71554 66.7908 7.65105 66.9646 7.56669C67.1385 7.48222 67.2892 7.37778 67.4169 7.25327C67.6439 7.02229 67.8107 6.72223 67.9171 6.35329C68.0235 5.98445 68.0767 5.53339 68.0767 4.99989C68.0767 4.46671 68.0235 4.01554 67.9171 3.6467C67.8107 3.27787 67.6439 2.97781 67.4169 2.74673C67.1544 2.49781 66.8033 2.33112 66.3634 2.24676C65.9235 2.16219 65.3382 2.1201 64.6074 2.1201H63.4475C62.7167 2.1201 62.1313 2.16219 61.6916 2.24676C61.2517 2.33112 60.9004 2.49781 60.6381 2.74673C60.4109 2.97781 60.2443 3.27787 60.1379 3.6467C60.0313 4.01554 59.9781 4.46671 59.9781 4.99989C59.9781 5.53339 60.0313 5.98445 60.1379 6.35329C60.2443 6.72223 60.4109 7.02229 60.6381 7.25327C60.7657 7.37778 60.9165 7.48222 61.0902 7.56669C61.2641 7.65105 61.4645 7.71554 61.6916 7.75997C61.9185 7.80449 62.1757 7.83557 62.4631 7.8532C62.7504 7.87113 63.075 7.87999 63.4367 7.87999H64.618ZM64.799 0C65.8773 0 66.773 0.111156 67.4862 0.333274C68.1991 0.555494 68.7685 0.937785 69.1942 1.48004C69.5063 1.88006 69.7387 2.37788 69.8911 2.97332C70.0437 3.56886 70.12 4.24449 70.12 4.99989C70.12 5.75561 70.0437 6.43103 69.8911 7.02657C69.7387 7.62221 69.5063 8.12005 69.1942 8.51996C68.7685 9.06211 68.1974 9.4443 67.4808 9.66652C66.7642 9.88894 65.8633 10 64.7777 10H63.256C62.1774 10 61.2818 9.88894 60.5689 9.66652C59.8558 9.4443 59.2865 9.06211 58.8607 8.51996C58.5486 8.12005 58.3163 7.62221 58.1637 7.02657C58.0112 6.43103 57.9349 5.75561 57.9349 4.99989C57.9349 4.24449 58.0112 3.56886 58.1637 2.97332C58.3163 2.37788 58.5486 1.88006 58.8607 1.48004C59.2865 0.937785 59.8558 0.555494 60.5689 0.333274C61.2818 0.111156 62.1774 0 63.256 0H64.799ZM73.9831 9.83993H72.0355V0.160064H80.9856V2.07996H73.9831V3.95991H78.6655V5.80003H73.9831V9.83993ZM81.7943 0.160064H92V2.07996H87.8709V9.83993H85.9234V2.07996H81.7943V0.160064Z" fill="#282828"/>
</svg>
